<?xml version="1.0" encoding="utf-8"?>
<!-- Generator: Adobe Illustrator 23.1.0, SVG Export Plug-In . SVG Version: 6.00 Build 0)  -->
<svg version="1.1" id="Layer_1" xmlns="http://www.w3.org/2000/svg" xmlns:xlink="http://www.w3.org/1999/xlink" x="0px" y="0px"
	 viewBox="0 0 1366 768" style="enable-background:new 0 0 1366 768;" xml:space="preserve">
<style type="text/css">
	.st0{fill:#386895;}
	.st1{fill:#273B7A;}
	.st2{fill:#FF7F4F;}
	.st3{fill:#F76F46;}
	.st4{fill:#FF5419;}
	.st5{fill:#E03A00;}
</style>
<circle class="st0" cx="670.64" cy="288.84" r="8"/>
<path class="st1" d="M678.58,287.97l-3.73-4.18l-9.65,8.76l3.62,4.06c0.58,0.13,1.18,0.2,1.8,0.2c4.42,0,8-3.58,8-8
	C678.62,288.53,678.61,288.25,678.58,287.97z"/>
<circle class="st2" cx="670.64" cy="288.86" r="6.53"/>
<path class="st3" d="M670.66,282.33C670.66,282.33,670.66,282.33,670.66,282.33l-0.01,13.05c0,0,0.01,0,0.01,0
	c3.6,0,6.53-2.92,6.53-6.53C677.19,285.25,674.27,282.33,670.66,282.33z"/>
<ellipse transform="matrix(0.7834 -0.6215 0.6215 0.7834 -31.9535 476.2098)" class="st4" cx="667.25" cy="283.95" rx="1.55" ry="0.47"/>
<ellipse transform="matrix(0.7071 -0.7071 0.7071 0.7071 -8.2246 555.9885)" class="st4" cx="667.03" cy="287.92" rx="1.51" ry="0.93"/>
<circle class="st4" cx="669.13" cy="286.19" r="0.63"/>
<circle class="st4" cx="668.52" cy="291.76" r="0.59"/>
<ellipse transform="matrix(0.3565 -0.9343 0.9343 0.3565 166.5173 812.9107)" class="st5" cx="673.38" cy="285.58" rx="1.06" ry="1.66"/>
<circle class="st5" cx="672.73" cy="289.07" r="1.14"/>
<ellipse class="st5" cx="676.3" cy="288.85" rx="0.34" ry="1.88"/>
<circle class="st5" cx="672.17" cy="293.06" r="0.74"/>
</svg>
