<?xml version="1.0" encoding="utf-8"?>
<!-- Generator: Adobe Illustrator 23.1.0, SVG Export Plug-In . SVG Version: 6.00 Build 0)  -->
<svg version="1.1" id="Layer_1" xmlns="http://www.w3.org/2000/svg" xmlns:xlink="http://www.w3.org/1999/xlink" x="0px" y="0px"
	 viewBox="0 0 1366 768" style="enable-background:new 0 0 1366 768;" xml:space="preserve">
<style type="text/css">
	.st0{fill:#FF7F4F;}
	.st1{fill:#F76F46;}
	.st2{fill:#FF5419;}
	.st3{fill:#E03A00;}
</style>
<ellipse class="st0" cx="670.63" cy="288.86" rx="7.99" ry="8"/>
<path class="st1" d="M670.66,280.85C670.66,280.85,670.66,280.85,670.66,280.85l-0.01,15.99c0,0,0.01,0,0.01,0
	c4.41,0,7.99-3.58,7.99-8S675.07,280.85,670.66,280.85z"/>
<ellipse transform="matrix(0.7828 -0.6222 0.6222 0.7828 -31.2594 476.1203)" class="st2" cx="666.49" cy="282.84" rx="1.89" ry="0.58"/>
<ellipse transform="matrix(0.7059 -0.7083 0.7083 0.7059 -7.8608 556.4918)" class="st2" cx="666.22" cy="287.71" rx="1.85" ry="1.14"/>
<circle class="st2" cx="668.79" cy="285.6" r="0.77"/>
<circle class="st2" cx="668.05" cy="292.42" r="0.73"/>
<ellipse transform="matrix(0.3576 -0.9339 0.9339 0.3576 166.9635 812.3942)" class="st3" cx="673.98" cy="284.84" rx="1.3" ry="2.03"/>
<ellipse class="st3" cx="673.2" cy="289.12" rx="1.39" ry="1.39"/>
<ellipse class="st3" cx="677.57" cy="288.85" rx="0.42" ry="2.3"/>
<circle class="st3" cx="672.51" cy="294" r="0.9"/>
</svg>
