<?xml version="1.0" encoding="utf-8"?>
<!-- Generator: Adobe Illustrator 23.1.0, SVG Export Plug-In . SVG Version: 6.00 Build 0)  -->
<svg version="1.1" id="Layer_1" xmlns="http://www.w3.org/2000/svg" xmlns:xlink="http://www.w3.org/1999/xlink" x="0px" y="0px"
	 viewBox="0 0 30 30" style="enable-background:new 0 0 30 30;" xml:space="preserve">
<style type="text/css">
	.st0{fill:#FFFFFF;}
</style>
<path class="st0" d="M7.3,16.6c0-0.2,0.1-0.4,0.2-0.6c0.2-0.1,0.4-0.2,0.6-0.2h5.7c0.3,0,0.5,0.1,0.6,0.2c0.2,0.1,0.2,0.3,0.2,0.6
	c0,0.3-0.1,0.5-0.2,0.6s-0.4,0.2-0.6,0.2H8.2c-0.3,0-0.5-0.1-0.6-0.2S7.3,16.9,7.3,16.6z M7.3,10.7c0-0.2,0.1-0.4,0.2-0.6
	C7.7,10,7.9,9.9,8.2,9.9h3c0.3,0,0.5,0.1,0.6,0.2c0.2,0.1,0.2,0.3,0.2,0.6c0,0.3-0.1,0.5-0.2,0.6c-0.2,0.2-0.4,0.2-0.6,0.2h-3
	c-0.3,0-0.5-0.1-0.6-0.2S7.3,10.9,7.3,10.7z M8.3,19.5c0-0.2,0.1-0.4,0.3-0.6c0.2-0.2,0.4-0.3,0.6-0.3c0.3,0,0.5,0.1,0.6,0.3
	s0.2,0.4,0.2,0.6c0,0.3-0.1,0.5-0.2,0.6s-0.4,0.2-0.6,0.2c-0.2,0-0.4-0.1-0.6-0.2C8.4,20,8.3,19.8,8.3,19.5z M9.7,13.6
	c0-0.2,0.1-0.4,0.2-0.6c0.1-0.2,0.3-0.3,0.5-0.3c0.3,0,0.5,0.1,0.6,0.3c0.2,0.2,0.2,0.4,0.2,0.6c0,0.3-0.1,0.5-0.2,0.6
	c-0.2,0.2-0.4,0.2-0.6,0.2c-0.2,0-0.4-0.1-0.6-0.2S9.7,13.9,9.7,13.6z M10.7,19.5c0-0.2,0.1-0.4,0.2-0.6s0.4-0.3,0.6-0.3h3.8
	l0.9,0.9c0,0.3-0.1,0.5-0.3,0.6s-0.4,0.2-0.6,0.2h-3.8c-0.3,0-0.5-0.1-0.6-0.2S10.7,19.8,10.7,19.5z M12.1,13.6
	c0-0.2,0.1-0.4,0.3-0.6c0.2-0.2,0.4-0.3,0.6-0.3h3.8c0.3,0,0.5,0.1,0.6,0.3s0.2,0.4,0.2,0.6c0,0.3-0.1,0.5-0.2,0.6
	c-0.2,0.2-0.4,0.2-0.6,0.2h-3.8c-0.2,0-0.4-0.1-0.6-0.2C12.1,14.1,12.1,13.9,12.1,13.6z M12.8,10.7c0-0.2,0.1-0.4,0.2-0.6
	s0.4-0.2,0.6-0.2h5.7c0.2,0,0.4,0.1,0.6,0.2s0.3,0.3,0.3,0.5c0,0.3-0.1,0.5-0.3,0.6c-0.2,0.2-0.4,0.2-0.6,0.2h-5.7
	c-0.3,0-0.5-0.1-0.6-0.2C12.9,11.1,12.8,10.9,12.8,10.7z M15.4,16.6c0-0.2,0.1-0.4,0.3-0.5s0.4-0.2,0.6-0.2s0.4,0.1,0.6,0.2
	s0.3,0.3,0.3,0.5c0,0.3-0.1,0.5-0.3,0.6s-0.4,0.2-0.6,0.2c-0.2,0-0.4-0.1-0.6-0.2C15.5,17.1,15.4,16.9,15.4,16.6z M17,19.5
	c0-0.2,0.1-0.4,0.2-0.6c0.2-0.2,0.4-0.3,0.6-0.3h1.9c0.3,0,0.5,0.1,0.6,0.3s0.2,0.4,0.2,0.6c0,0.3-0.1,0.5-0.2,0.6s-0.4,0.2-0.6,0.2
	h-1.9c-0.3,0-0.5-0.1-0.6-0.2C17.1,20,17,19.8,17,19.5z M17.9,16.6c0-0.2,0.1-0.4,0.3-0.5s0.4-0.2,0.6-0.2h3.1
	c0.2,0,0.4,0.1,0.5,0.2c0.1,0.1,0.2,0.3,0.2,0.5c0,0.3-0.1,0.5-0.2,0.6s-0.3,0.2-0.5,0.2h-3.1c-0.2,0-0.4-0.1-0.6-0.2
	C17.9,17.1,17.9,16.9,17.9,16.6z M18.3,13.6c0-0.2,0.1-0.4,0.3-0.6c0.2-0.2,0.4-0.3,0.6-0.3h2c0.2,0,0.4,0.1,0.5,0.3
	c0.1,0.2,0.2,0.4,0.2,0.6c0,0.3-0.1,0.5-0.2,0.6c-0.1,0.2-0.3,0.2-0.5,0.2h-2c-0.2,0-0.4-0.1-0.6-0.2C18.4,14.1,18.3,13.9,18.3,13.6
	z M21,10.7c0-0.2,0.1-0.4,0.2-0.6c0.1-0.1,0.3-0.2,0.5-0.2c0.3,0,0.5,0.1,0.6,0.2c0.2,0.1,0.2,0.3,0.2,0.6c0,0.3-0.1,0.5-0.2,0.6
	c-0.2,0.2-0.4,0.2-0.6,0.2c-0.2,0-0.4-0.1-0.5-0.2C21.1,11.1,21,10.9,21,10.7z"/>
</svg>
