<?xml version="1.0" encoding="utf-8"?>
<!-- Generator: Adobe Illustrator 23.1.0, SVG Export Plug-In . SVG Version: 6.00 Build 0)  -->
<svg version="1.1" id="Layer_1" xmlns="http://www.w3.org/2000/svg" xmlns:xlink="http://www.w3.org/1999/xlink" x="0px" y="0px"
	 viewBox="0 0 30 30" style="enable-background:new 0 0 30 30;" xml:space="preserve">
<style type="text/css">
	.st0{fill:#FFFFFF;}
</style>
<path class="st0" d="M10.1,17.5c0,0.3,0.1,0.5,0.3,0.7c0.2,0.2,0.5,0.3,0.8,0.3c0.3,0,0.6-0.1,0.7-0.3l6-6.1v1.9
	c0,0.3,0.1,0.6,0.3,0.8c0.2,0.2,0.5,0.3,0.8,0.3c0.3,0,0.5-0.1,0.7-0.3s0.3-0.4,0.3-0.8V9.7c0-0.3-0.1-0.6-0.3-0.8s-0.5-0.3-0.7-0.3
	h-4.5c-0.3,0-0.5,0.1-0.7,0.3s-0.3,0.4-0.3,0.8c0,0.3,0.1,0.5,0.3,0.7s0.4,0.3,0.7,0.3h2l-6.1,6.1C10.1,17,10.1,17.3,10.1,17.5z"/>
</svg>
