<?xml version="1.0" encoding="utf-8"?>
<!-- Generator: Adobe Illustrator 23.1.0, SVG Export Plug-In . SVG Version: 6.00 Build 0)  -->
<svg version="1.1" id="Layer_1" xmlns="http://www.w3.org/2000/svg" xmlns:xlink="http://www.w3.org/1999/xlink" x="0px" y="0px"
	 viewBox="0 0 30 30" style="enable-background:new 0 0 30 30;" xml:space="preserve">
<style type="text/css">
	.st0{fill:#FFFFFF;}
</style>
<path class="st0" d="M9.9,10.9c0,0.4,0.1,0.6,0.3,0.9s0.5,0.4,0.9,0.4c0.3,0,0.6-0.1,0.9-0.4l1.7-1.6v10.3c0,0.4,0.1,0.6,0.4,0.9
	s0.6,0.4,0.9,0.3c0.3,0,0.6-0.1,0.9-0.3c0.2-0.2,0.4-0.5,0.4-0.9V10.1l1.6,1.6c0.2,0.2,0.5,0.4,0.9,0.4c0.4,0,0.7-0.1,0.9-0.4
	s0.4-0.5,0.4-0.9c0-0.4-0.1-0.6-0.4-0.9l-3.7-3.8C15.7,6,15.4,5.8,15,5.8c-0.4,0-0.7,0.2-0.9,0.4L10.3,10
	C10.1,10.3,9.9,10.5,9.9,10.9z"/>
</svg>
