<?xml version="1.0" encoding="utf-8"?>
<!-- Generator: Adobe Illustrator 23.1.0, SVG Export Plug-In . SVG Version: 6.00 Build 0)  -->
<svg version="1.1" id="Layer_1" xmlns="http://www.w3.org/2000/svg" xmlns:xlink="http://www.w3.org/1999/xlink" x="0px" y="0px"
	 viewBox="0 0 30 30" style="enable-background:new 0 0 30 30;" xml:space="preserve">
<style type="text/css">
	.st0{fill:#FFFFFF;}
</style>
<path class="st0" d="M11.8,16.5c0,0.2,0.1,0.4,0.3,0.5l2.4,2.5c0.2,0.2,0.4,0.2,0.6,0.2c0.2,0,0.4-0.1,0.6-0.2L18,17
	c0.2-0.1,0.2-0.3,0.2-0.5s-0.1-0.4-0.2-0.6s-0.3-0.2-0.6-0.2s-0.4,0.1-0.6,0.2l-1.1,1v-6.6c0-0.2-0.1-0.4-0.2-0.6
	c-0.2-0.1-0.3-0.2-0.6-0.2s-0.4,0.1-0.6,0.2c-0.2,0.1-0.2,0.3-0.2,0.6V17l-1.1-1.1c-0.2-0.2-0.3-0.2-0.6-0.2c-0.2,0-0.4,0.1-0.6,0.2
	C11.9,16,11.8,16.3,11.8,16.5z"/>
</svg>
