<?xml version="1.0" encoding="utf-8"?>
<!-- Generator: Adobe Illustrator 23.1.0, SVG Export Plug-In . SVG Version: 6.00 Build 0)  -->
<svg version="1.1" id="Layer_1" xmlns="http://www.w3.org/2000/svg" xmlns:xlink="http://www.w3.org/1999/xlink" x="0px" y="0px"
	 viewBox="0 0 30 30" style="enable-background:new 0 0 30 30;" xml:space="preserve">
<style type="text/css">
	.st0{fill:#FFFFFF;}
</style>
<path class="st0" d="M7.1,15c0,0.4,0.1,0.7,0.4,0.9l3.8,3.8c0.2,0.3,0.5,0.4,0.9,0.4c0.4,0,0.6-0.1,0.9-0.4s0.4-0.5,0.4-0.9
	s-0.1-0.6-0.4-0.9l-1.6-1.6h10.3c0.4,0,0.6-0.1,0.9-0.4s0.3-0.6,0.3-0.9s-0.1-0.6-0.3-0.9s-0.5-0.4-0.9-0.4H11.4L13,12
	c0.2-0.2,0.4-0.5,0.4-0.9c0-0.4-0.1-0.6-0.4-0.9s-0.5-0.4-0.9-0.4c-0.3,0-0.6,0.1-0.9,0.4l-3.8,3.8C7.2,14.3,7.1,14.6,7.1,15z"/>
</svg>
