<?xml version="1.0" encoding="utf-8"?>
<!-- Generator: Adobe Illustrator 23.1.0, SVG Export Plug-In . SVG Version: 6.00 Build 0)  -->
<svg version="1.1" id="Layer_1" xmlns="http://www.w3.org/2000/svg" xmlns:xlink="http://www.w3.org/1999/xlink" x="0px" y="0px"
	 viewBox="0 0 30 30" style="enable-background:new 0 0 30 30;" xml:space="preserve">
<style type="text/css">
	.st0{fill:#FFFFFF;}
</style>
<path class="st0" d="M3.1,17c0,0.2,0.1,0.5,0.3,0.6c0.2,0.2,0.4,0.3,0.6,0.3h14.7c0.3,0,0.5,0.1,0.7,0.3c0.2,0.2,0.3,0.5,0.3,0.7
	c0,0.3-0.1,0.5-0.3,0.7c-0.2,0.2-0.4,0.3-0.7,0.3c-0.3,0-0.5-0.1-0.7-0.3c-0.2-0.2-0.4-0.3-0.6-0.3c-0.3,0-0.5,0.1-0.6,0.3
	s-0.3,0.4-0.3,0.6c0,0.3,0.1,0.5,0.3,0.6c0.6,0.5,1.2,0.8,2,0.8c0.8,0,1.5-0.3,2-0.8c0.6-0.5,0.8-1.2,0.8-2s-0.3-1.4-0.8-2
	s-1.2-0.8-2-0.8H4c-0.3,0-0.5,0.1-0.6,0.3C3.2,16.5,3.1,16.7,3.1,17z M3.1,13.7c0,0.2,0.1,0.4,0.3,0.6c0.2,0.2,0.4,0.3,0.6,0.3h20
	c0.8,0,1.5-0.3,2-0.8c0.6-0.5,0.8-1.2,0.8-2c0-0.8-0.3-1.4-0.8-2s-1.2-0.8-2-0.8c-0.8,0-1.4,0.3-2,0.8c-0.2,0.2-0.3,0.4-0.3,0.7
	c0,0.3,0.1,0.5,0.3,0.6s0.4,0.2,0.6,0.2c0.2,0,0.5-0.1,0.6-0.2c0.2-0.2,0.4-0.3,0.7-0.3c0.3,0,0.5,0.1,0.7,0.3
	c0.2,0.2,0.3,0.4,0.3,0.7c0,0.3-0.1,0.5-0.3,0.7c-0.2,0.2-0.4,0.3-0.7,0.3H4c-0.3,0-0.5,0.1-0.6,0.3C3.2,13.2,3.1,13.4,3.1,13.7z
	 M4.7,20.6c0,0.2,0.1,0.4,0.2,0.6c0.2,0.2,0.4,0.2,0.6,0.2c0.2,0,0.4-0.1,0.6-0.2s0.3-0.4,0.3-0.6c0-0.2-0.1-0.4-0.3-0.6
	s-0.4-0.3-0.6-0.3c-0.2,0-0.4,0.1-0.6,0.3C4.8,20.2,4.7,20.4,4.7,20.6z M5.6,10.7c0,0.2,0.1,0.4,0.2,0.6c0.2,0.2,0.4,0.2,0.6,0.2
	c0.2,0,0.4-0.1,0.6-0.2c0.2-0.2,0.3-0.4,0.3-0.6c0-0.2-0.1-0.4-0.3-0.6C6.9,9.9,6.7,9.8,6.4,9.8c-0.2,0-0.4,0.1-0.6,0.3
	C5.7,10.3,5.6,10.4,5.6,10.7z M8.6,8.4c0,0.2,0.1,0.4,0.2,0.6c0.2,0.2,0.4,0.3,0.6,0.3c0.2,0,0.4-0.1,0.6-0.2
	c0.2-0.2,0.3-0.4,0.3-0.6c0-0.2-0.1-0.4-0.3-0.6C9.9,7.6,9.7,7.5,9.5,7.5c-0.2,0-0.4,0.1-0.6,0.3C8.7,7.9,8.6,8.1,8.6,8.4z M8.7,20
	c0,0.2,0.1,0.4,0.3,0.6c0.2,0.2,0.4,0.2,0.6,0.2c0.2,0,0.4-0.1,0.6-0.2c0.2-0.2,0.3-0.4,0.3-0.6c0-0.2-0.1-0.4-0.3-0.6
	s-0.4-0.3-0.6-0.3c-0.2,0-0.4,0.1-0.6,0.3C8.8,19.5,8.7,19.7,8.7,20z M12.9,10.1c0,0.2,0.1,0.4,0.2,0.6c0.2,0.2,0.4,0.2,0.6,0.2
	c0.2,0,0.4-0.1,0.6-0.2s0.3-0.4,0.3-0.6c0-0.2-0.1-0.4-0.3-0.6S14,9.3,13.7,9.3s-0.4,0.1-0.6,0.3S12.9,9.9,12.9,10.1z M13.2,21.1
	c0,0.2,0.1,0.4,0.3,0.6c0.2,0.2,0.4,0.2,0.6,0.2c0.2,0,0.4-0.1,0.6-0.2c0.2-0.2,0.3-0.4,0.3-0.6c0-0.2-0.1-0.4-0.3-0.6
	s-0.4-0.3-0.6-0.3c-0.2,0-0.4,0.1-0.6,0.3S13.2,20.9,13.2,21.1z M17.7,10c0,0.2,0.1,0.4,0.2,0.6c0.2,0.2,0.4,0.3,0.6,0.3
	c0.2,0,0.5-0.1,0.6-0.2c0.2-0.2,0.3-0.4,0.3-0.6c0-0.2-0.1-0.4-0.3-0.6s-0.4-0.3-0.6-0.3c-0.2,0-0.4,0.1-0.6,0.3
	C17.8,9.6,17.7,9.8,17.7,10z M22.8,17c0,0.2,0.1,0.4,0.2,0.6c0.2,0.2,0.4,0.2,0.6,0.2c0.2,0,0.5-0.1,0.6-0.2
	c0.2-0.2,0.3-0.4,0.3-0.6c0-0.2-0.1-0.4-0.3-0.6s-0.4-0.3-0.6-0.3c-0.2,0-0.4,0.1-0.6,0.3C22.9,16.6,22.8,16.8,22.8,17z"/>
</svg>
